PathFileType	4	(X/Y/Z)	OpenSim_Sub01_EMGBaseline_Gyro.trc
DataRate	CameraRate	NumFrames	NumMarkers	Units	OrigDataRate	OrigDataStartFrame	OrigNumFrames
100	100	20	8	m	100	1	7604
Frame#	Time	torso_imu_offset_imu	pelvis_imu_offset_imu	tibia_r_imu_offset_imu	femur_r_imu_offset_imu	tibia_l_imu_offset_imu	femur_l_imu_offset_imu	toes_r_imu_offset_imu	toes_l_imu_offset_imu
				X1	Y1	Z1	X2	Y2	Z2	X3	Y3	Z3	X4	Y4	Z4	X5	Y5	Z5	X6	Y6	Z6	X7	Y7	Z7	X8		Y8	Z8	

1	0	0.01892514	-0.01699425	-0.00627209	0.00412098	0.00344536	-0.00676111	0.01421800	0.00776504	0.00581706	0.01997424	0.01017540	0.01057934	0.00461261	0.00168810	-0.00675810	0.01606920	0.00356127	-0.01121848	0.00310513	0.00748300	-0.00049389	-0.00143423	0.01521423	-0.00346898
2	0.01000000	0.02051596	-0.01976897	-0.00764638	0.00855519	0.00186450	-0.00592594	0.01123483	0.00805424	0.00458738	0.01842417	0.01245578	0.01085424	0.00352800	0.00298862	-0.00691028	0.01688100	0.00303586	-0.01127389	0.00376433	0.00828149	-0.00000826	-0.00200748	0.01382134	-0.00268553
3	0.02000000	0.02232910	-0.02347794	-0.00929759	0.01182793	-0.00102872	-0.00442574	0.00900603	0.00782775	0.00382466	0.01275626	0.01530773	0.00950504	0.00500676	0.00369093	-0.00735903	0.01503516	0.00061645	-0.01039528	0.00463191	0.00865423	0.00058798	-0.00253336	0.01309124	-0.00185182
4	0.03000000	0.02486464	-0.02785892	-0.01104918	0.01203994	-0.00465311	-0.00293674	0.00828301	0.00628050	0.00357927	0.00423780	0.01722652	0.00653404	0.00860187	0.00343939	-0.00762546	0.01044340	-0.00452281	-0.00885276	0.00543315	0.00793502	0.00087213	-0.00247381	0.01405724	-0.00166861
5	0.04000000	0.02782017	-0.03110709	-0.01303975	0.01027049	-0.00747857	-0.00145177	0.00879983	0.00489402	0.00363699	-0.00056014	0.01812557	0.00354454	0.01202487	0.00350288	-0.00782112	0.00484497	-0.00970695	-0.00750544	0.00572249	0.00704591	0.00080249	-0.00233093	0.01594352	-0.00182649
6	0.05000000	0.03074525	-0.03130881	-0.01545535	0.00810279	-0.00793302	0.00013455	0.01006830	0.00542368	0.00373153	0.00523433	0.01816531	0.00232791	0.01281444	0.00529997	-0.00814104	0.00023086	-0.01180179	-0.00725999	0.00507577	0.00712760	0.00041552	-0.00275585	0.01767461	-0.00185686
7	0.06000000	0.03319472	-0.02919003	-0.01831952	0.00642095	-0.00644194	0.00150643	0.01108953	0.00739686	0.00354992	0.01832171	0.01727923	0.00306061	0.01101704	0.00799437	-0.00839642	-0.00269637	-0.01048643	-0.00810529	0.00386225	0.00819924	-0.00013626	-0.00375174	0.01869640	-0.00170396
8	0.07000000	0.03472791	-0.02750785	-0.02153073	0.00557063	-0.00496801	0.00202404	0.01047203	0.00862646	0.00274351	0.02757545	0.01522646	0.00467611	0.00860905	0.00901495	-0.00810311	-0.00422642	-0.00760533	-0.00932364	0.00306165	0.00941676	-0.00061112	-0.00482308	0.01885623	-0.00162976
9	0.08000000	0.03552113	-0.02803445	-0.02495126	0.00554594	-0.00481841	0.00135364	0.00756537	0.00776842	0.00132644	0.02557588	0.01213593	0.00630834	0.00694651	0.00697433	-0.00700790	-0.00516152	-0.00465311	-0.01016905	0.00327724	0.01013156	-0.00084683	-0.00552915	0.01815148	-0.00180235
10	0.09000000	0.03758362	-0.02946006	-0.02834550	0.00533749	-0.00523510	0.00009559	0.00395112	0.00611471	0.00039357	0.01651635	0.00924881	0.00778179	0.00539451	0.00413522	-0.00556627	-0.00775111	-0.00191936	-0.00986535	0.00394704	0.01034180	-0.00092421	-0.00563028	0.01699469	-0.00208674
11	0.10000000	0.04302529	-0.02999654	-0.03144948	0.00385589	-0.00515464	-0.00100755	0.00153122	0.00534093	0.00112800	0.00652783	0.00795654	0.00903477	0.00303030	0.00324769	-0.00432825	-0.01420201	0.00046516	-0.00773762	0.00433539	0.01017286	-0.00096473	-0.00496155	0.01586934	-0.00229870
12	0.11000000	0.05039140	-0.02922395	-0.03384606	0.00159060	-0.00465763	-0.00167010	0.00082668	0.00557092	0.00304367	-0.00139242	0.00882217	0.00979809	0.00013150	0.00425702	-0.00329803	-0.02208042	0.00141281	-0.00470952	0.00433119	0.00986411	-0.00102554	-0.00391994	0.01517204	-0.00235643
13	0.12000000	0.05548465	-0.02777564	-0.03500021	0.00024585	-0.00470508	-0.00195806	0.00129561	0.00573428	0.00437024	-0.00665955	0.01177071	0.00964297	-0.00210046	0.00495000	-0.00205983	-0.02538212	-0.00089950	-0.00293452	0.00430408	0.00974262	-0.00111431	-0.00333474	0.01523234	-0.00225698
14	0.13000000	0.05603145	-0.02640472	-0.03443614	0.00066348	-0.00595529	-0.00192050	0.00258252	0.00525076	0.00409175	-0.00895186	0.01627493	0.00837112	-0.00274927	0.00402102	-0.00045967	-0.02064628	-0.00682653	-0.00355646	0.00453488	0.01006311	-0.00122247	-0.00368048	0.01617511	-0.00203372
15	0.14000000	0.05568393	-0.02613963	-0.03186315	0.00102994	-0.00809987	-0.00152914	0.00496698	0.00508771	0.00353212	-0.00854501	0.02051248	0.00648134	-0.00181654	0.00302624	0.00084641	-0.01224247	-0.01230364	-0.00462529	0.00500372	0.01085860	-0.00129717	-0.00434452	0.01752211	-0.00182196
16	0.15000000	0.05882265	-0.02798050	-0.02712305	-0.00079529	-0.01063434	-0.00076946	0.00875594	0.00638315	0.00431784	-0.00585941	0.02251521	0.00461422	0.00045689	0.00392790	0.00111549	-0.00581316	-0.01277852	-0.00380013	0.00562244	0.01208666	-0.00127701	-0.00456659	0.01869918	-0.00175899
17	0.16000000	0.06433427	-0.03174206	-0.02152857	-0.00449976	-0.01279501	-0.00004634	0.01290907	0.00854730	0.00613016	-0.00182849	0.02171578	0.00360398	0.00279029	0.00684754	0.00054556	-0.00438444	-0.00862762	-0.00145151	0.00611291	0.01318965	-0.00109574	-0.00438530	0.01936499	-0.00173005
18	0.17000000	0.06687819	-0.03632660	-0.01752401	-0.00788332	-0.01361915	-0.00008716	0.01534927	0.00966091	0.00715351	0.00221924	0.01862544	0.00443346	0.00310314	0.01048992	0.00005870	-0.00896732	-0.00402072	-0.00003658	0.00605087	0.01321372	-0.00068338	-0.00445400	0.01935755	-0.00142646
19	0.18000000	0.06365553	-0.04072072	-0.01666200	-0.00949037	-0.01287677	-0.00120504	0.01443787	0.00857185	0.00636820	0.00473118	0.01411070	0.00746223	0.00034750	0.01370697	0.00033065	-0.01919335	-0.00211502	-0.00126189	0.00523022	0.01174065	0.00001013	-0.00513362	0.01864503	-0.00072034
20	0.19000000	0.05974291	-0.04423122	-0.01775906	-0.01022201	-0.01253033	-0.00245747	0.00991833	0.00650896	0.00523384	0.00351907	0.01001117	0.01118654	-0.00339530	0.01589633	0.00124976	-0.03074903	-0.00276901	-0.00444417	0.00410414	0.00997405	0.00097538	-0.00586927	0.01756859	-0.00003586
